HIERARCHY
ROOT Hips
{
 OFFSET 0.000000 0.000000 0.000000
 CHANNELS 6 Xposition Yposition Zposition Yrotation Xrotation Zrotation
 JOINT Chest
 {
  OFFSET 0.000000 9.585900 0.002600
  CHANNELS 3 Yrotation Xrotation Zrotation
  JOINT Chest2
  {
   OFFSET 0.000000 9.601200 -0.005300
   CHANNELS 3 Yrotation Xrotation Zrotation
   JOINT Chest3
   {
    OFFSET 0.000000 9.561800 0.000000
    CHANNELS 3 Yrotation Xrotation Zrotation
    JOINT Chest4
    {
     OFFSET 0.000000 9.552100 0.000000
     CHANNELS 3 Yrotation Xrotation Zrotation
     JOINT Neck
     {
      OFFSET 0.000000 14.453000 0.000000
      CHANNELS 3 Yrotation Xrotation Zrotation
      JOINT Head
      {
       OFFSET 0.000000 8.936500 -0.011300
       CHANNELS 3 Yrotation Xrotation Zrotation
       End Site
       {
        OFFSET 0.000000 17.073600 -0.006000
       }
      }
     }
     JOINT RightCollar
     {
      OFFSET -2.921100 9.558500 0.000000
      CHANNELS 3 Yrotation Xrotation Zrotation
      JOINT RightShoulder
      {
       OFFSET -13.519700 0.000000 0.000000
       CHANNELS 3 Yrotation Xrotation Zrotation
       JOINT RightElbow
       {
        OFFSET 0.000000 -29.696600 0.000000
        CHANNELS 3 Yrotation Xrotation Zrotation
        JOINT RightWrist
        {
         OFFSET 0.000000 -24.004700 0.000000
         CHANNELS 3 Yrotation Xrotation Zrotation
         End Site
         {
          OFFSET 0.000000 -17.728500 0.000000
         }
        }
       }
      }
     }
     JOINT LeftCollar
     {
      OFFSET 2.921100 9.558500 0.000000
      CHANNELS 3 Yrotation Xrotation Zrotation
      JOINT LeftShoulder
      {
       OFFSET 13.519700 0.000000 0.000000
       CHANNELS 3 Yrotation Xrotation Zrotation
       JOINT LeftElbow
       {
        OFFSET 0.000000 -29.696600 0.000000
        CHANNELS 3 Yrotation Xrotation Zrotation
        JOINT LeftWrist
        {
         OFFSET 0.000000 -24.004700 0.000000
         CHANNELS 3 Yrotation Xrotation Zrotation
         End Site
         {
          OFFSET 0.000000 -17.728500 0.000000
         }
        }
       }
      }
     }
    }
   }
  }
 }
 JOINT RightHip
 {
  OFFSET -7.771700 -0.012900 -0.001300
  CHANNELS 3 Yrotation Xrotation Zrotation
  JOINT RightKnee
  {
   OFFSET 0.000000 -40.869800 0.001200
   CHANNELS 3 Yrotation Xrotation Zrotation
   JOINT RightAnkle
   {
    OFFSET 0.000000 -39.717900 0.002100
    CHANNELS 3 Yrotation Xrotation Zrotation
    JOINT RightToe
    {
     OFFSET 0.000000 -4.965400 11.033500
     CHANNELS 3 Yrotation Xrotation Zrotation
     End Site
     {
      OFFSET 0.000000 -1.423100 5.872300
     }
    }
   }
  }
 }
 JOINT LeftHip
 {
  OFFSET 7.771700 -0.012900 -0.001300
  CHANNELS 3 Yrotation Xrotation Zrotation
  JOINT LeftKnee
  {
   OFFSET 0.000000 -40.869800 0.001200
   CHANNELS 3 Yrotation Xrotation Zrotation
   JOINT LeftAnkle
   {
    OFFSET 0.000000 -39.717900 0.002100
    CHANNELS 3 Yrotation Xrotation Zrotation
    JOINT LeftToe
    {
     OFFSET 0.000000 -4.965400 11.033500
     CHANNELS 3 Yrotation Xrotation Zrotation
     End Site
     {
      OFFSET 0.000000 -1.423100 5.872300
     }
    }
   }
  }
 }
}
MOTION
Frames: 5
Frame Time: 0.008333
0.000000 85.388000 0.000000 0.000000 -5.767877 0.000000 0.000000 11.653817 0.000000 0.000000 -5.885947 0.000000 0.000000 -0.000000 0.000000 0.000000 -0.000000 0.000000 0.000000 12.528835 0.000000 0.000000 0.711642 0.000000 0.000000 -0.000000 0.000000 0.000000 0.000000 -90.000000 0.000000 -2.309062 0.000000 0.000000 2.309062 0.000000 0.000000 -0.000000 0.000000 0.000000 -0.000000 90.000000 0.000000 -2.309062 0.000000 0.000000 2.309062 0.000000 0.000000 8.520406 0.000000 0.000000 1.905762 0.000000 -0.000000 -4.658285 0.000000 0.000000 -0.000000 0.000000 0.000000 8.520406 0.000000 0.000000 1.905762 0.000000 -0.000000 -4.658285 0.000000 0.000000 -0.000000 0.000000
-16.728084 52.807376 10.625878 -177.192802 -20.538717 -1.753497 -0.716860 18.423646 1.036409 -0.132846 2.085397 0.127645 -0.136299 3.479499 0.245102 -0.596565 16.058162 1.045849 -1.191706 21.896007 -3.924330 -0.400338 -2.274063 -3.953047 3.035238 1.415539 1.277776 15.531713 -16.586709 -13.001652 -71.291652 -69.066751 117.221199 -4.558840 -44.718643 -33.168415 -5.528912 2.032853 -1.035471 -7.104276 -17.322693 15.203693 72.919348 -57.447228 -121.073004 0.613903 -43.297909 32.556353 2.841725 -58.120905 9.850736 -169.257896 85.778841 -170.593263 -13.046448 -22.503876 13.625851 0.003505 -0.054283 0.087514 4.293681 -56.778902 -3.781645 120.053947 77.880472 118.001279 -6.548729 -18.872070 -1.446052 0.007869 0.135627 0.026787
-16.735248 52.804566 10.629163 -177.152433 -20.499837 -1.721067 -0.752009 18.392072 1.002167 -0.113548 2.091030 0.136505 -0.154624 3.472397 0.238113 -0.564903 16.063815 1.064962 -1.178946 21.783733 -3.937212 -0.383099 -2.404961 -3.968153 3.045095 1.383829 1.276157 15.563687 -16.598704 -12.973120 -71.242131 -69.093315 117.087878 -4.587296 -44.686081 -33.150568 -5.544147 2.005812 -1.032548 -7.102177 -17.320489 15.191453 72.936432 -57.442508 -121.038174 0.614929 -43.258132 32.573035 2.888428 -58.161901 9.753673 -169.357977 85.764517 -170.721854 -13.036038 -22.507186 13.627452 0.010335 -0.052191 0.092590 4.310053 -56.814981 -3.853049 120.010295 77.882074 117.937061 -6.560357 -18.886493 -1.438181 0.012231 0.163397 0.027121
-16.737564 52.803124 10.628832 -177.129592 -20.482542 -1.713382 -0.759797 18.382250 1.000527 -0.062107 2.112596 0.161724 -0.150445 3.471061 0.242230 -0.583626 16.051374 1.065790 -1.180022 21.668520 -3.951231 -0.365356 -2.535537 -3.980883 3.041530 1.350188 1.275173 15.579994 -16.604086 -12.954807 -71.212476 -69.111472 116.993416 -4.623637 -44.667508 -33.134592 -5.558882 1.979260 -1.026697 -7.111563 -17.323230 15.173980 72.945741 -57.435656 -120.994982 0.620336 -43.232663 32.588879 2.900822 -58.180419 9.737791 -169.111206 85.751502 -170.501734 -13.091082 -22.497010 13.649872 0.010787 -0.048778 0.095465 4.303622 -56.831396 -3.875168 119.989940 77.882565 117.905891 -6.560450 -18.881627 -1.434657 0.010138 0.164648 0.025118
-16.736723 52.802259 10.627377 -177.115124 -20.472508 -1.723304 -0.707993 18.402077 1.055857 -0.091250 2.097575 0.148494 -0.165672 3.462527 0.234983 -0.552659 16.059880 1.083663 -1.166222 21.555769 -3.960824 -0.347839 -2.666779 -3.992672 3.021607 1.325982 1.271150 15.623650 -16.617834 -12.933506 -71.211993 -69.116689 116.937410 -4.655429 -44.647377 -33.128264 -5.559571 1.957051 -1.017615 -7.078357 -17.335740 15.149619 72.914940 -57.421444 -120.956200 0.672271 -43.218411 32.529476 2.883329 -58.191802 9.765634 -168.770397 85.743578 -170.169067 -13.201532 -22.479529 13.671648 0.009265 -0.042818 0.097303 4.273855 -56.842297 -3.860050 119.977377 77.882410 117.882140 -6.553657 -18.851990 -1.432491 -0.000926 0.139945 0.021126
